<?xml version="1.0" standalone="no"?>
<!DOCTYPE svg PUBLIC "-//W3C//DTD SVG 20010904//EN"
 "http://www.w3.org/TR/2001/REC-SVG-20010904/DTD/svg10.dtd">
<svg version="1.0" xmlns="http://www.w3.org/2000/svg"
 width="128.000000pt" height="128.000000pt" viewBox="0 0 128.000000 128.000000"
 preserveAspectRatio="xMidYMid meet">
<metadata>
Created by potrace 1.11, written by Peter Selinger 2001-2013
</metadata>
<g transform="translate(0.000000,128.000000) scale(0.100000,-0.100000)"
fill="#000000" stroke="none">
<path d="M559 1215 c-7 0 -6 -85 1 -86 6 -1 15 -2 22 -3 13 -1 21 -42 14 -71
-3 -13 -14 -21 -30 -23 -82 -6 -203 -71 -273 -145 -291 -308 -78 -816 343
-817 216 0 399 131 469 335 42 123 15 318 -57 414 l-19 25 47 47 48 48 -20 23
c-10 12 -31 34 -45 50 l-25 27 -48 -48 -47 -48 -77 39 c-42 22 -97 42 -120 45
-32 4 -46 11 -51 27 -11 29 2 71 22 70 14 -2 17 8 17 45 l0 48 -85 -1 c-47 -1
-85 -1 -86 -1z m176 -279 c120 -32 207 -102 261 -211 31 -63 37 -85 39 -153 6
-166 -82 -309 -233 -380 -49 -23 -70 -27 -152 -27 -78 0 -106 5 -158 25 -163
65 -266 244 -239 420 34 228 264 385 482 326z"/>
<path d="M599 808 c0 -7 -1 -49 -1 -93 0 -66 -3 -84 -19 -101 -33 -36 -30
-103 5 -126 11 -7 12 -13 15 -50 1 -14 10 -18 44 -18 39 0 43 2 45 26 1 14 11
37 22 51 26 34 26 83 -1 112 -19 20 -21 34 -21 115 l1 93 -44 1 c-30 2 -45 -2
-46 -10z"/>
</g>
</svg>
